<svg width="128" height="128" viewBox="0 0 128 128" fill="none" xmlns="http://www.w3.org/2000/svg">
<defs>
<linearGradient id="grad1" x1="16" y1="16" x2="112" y2="112" gradientUnits="userSpaceOnUse">
<stop offset="0%" stop-color="#3b82f6"/>
<stop offset="100%" stop-color="#8b5cf6"/>
</linearGradient>
<linearGradient id="gradHandle" x1="85" y1="85" x2="120" y2="120" gradientUnits="userSpaceOnUse">
<stop offset="0%" stop-color="#3b82f6"/>
<stop offset="100%" stop-color="#06b6d4"/>
</linearGradient>
</defs>

<circle cx="58" cy="58" r="42" stroke="url(#grad1)" stroke-width="8"/>

<path d="M91 91L116.5 116.5C119.5 119.5 119.5 124 116.5 127C113.5 130 109 130 106 127L80.5 101.5" stroke="url(#gradHandle)" stroke-width="8" stroke-linecap="round"/>

<g opacity="0.9">
<line x1="58" y1="58" x2="38" y2="38" stroke="#06b6d4" stroke-width="3"/>
<line x1="58" y1="58" x2="78" y2="38" stroke="#06b6d4" stroke-width="3"/>
<line x1="58" y1="58" x2="38" y2="78" stroke="#06b6d4" stroke-width="3"/>
<line x1="58" y1="58" x2="78" y2="78" stroke="#06b6d4" stroke-width="3"/>
<line x1="38" y1="38" x2="78" y2="38" stroke="#06b6d4" stroke-width="2" opacity="0.6"/>
<line x1="38" y1="78" x2="78" y2="78" stroke="#06b6d4" stroke-width="2" opacity="0.6"/>

<circle cx="58" cy="58" r="7" fill="#3b82f6"/> <circle cx="38" cy="38" r="5" fill="white" stroke="#3b82f6" stroke-width="2"/>
<circle cx="78" cy="38" r="5" fill="white" stroke="#8b5cf6" stroke-width="2"/>
<circle cx="38" cy="78" r="5" fill="white" stroke="#3b82f6" stroke-width="2"/>
<circle cx="78" cy="78" r="5" fill="white" stroke="#8b5cf6" stroke-width="2"/>
</g>
</svg>