<svg width="1024" height="1024" viewBox="0 0 1024 1024" fill="none" xmlns="http://www.w3.org/2000/svg">
<defs>
    <linearGradient id="scGradMaster" x1="150" y1="150" x2="850" y2="850" gradientUnits="userSpaceOnUse">
        <stop offset="0%" stop-color="#3b82f6"/>
        <stop offset="100%" stop-color="#8b5cf6"/>
    </linearGradient>
</defs>

<g transform="translate(20,20) scale(0.96)">
    
    <path d="M720 720 L880 880 L980 860 L860 980 L940 1040" stroke="#06b6d4" stroke-width="60" stroke-linecap="square" stroke-linejoin="miter"/>

    <g stroke="url(#scGradMaster)" stroke-width="32" fill="none">
        <circle cx="480" cy="480" r="380" stroke-width="40"/>
        
        <path d="M480 240 L688 360 L688 600 L480 720 L272 600 L272 360 Z" />
        <path d="M480 240 L480 100 M688 360 L810 290 M688 600 L810 670 M480 720 L480 860 M272 600 L150 670 M272 360 L150 290" />
        <path d="M272 360 L480 480 L688 360 M272 600 L480 480 L688 600"/>
    </g>

    <g fill="url(#scGradMaster)">
        <circle cx="480" cy="480" r="55"/>
        <circle cx="480" cy="240" r="45"/> <circle cx="688" cy="360" r="45"/>
        <circle cx="688" cy="600" r="45"/> <circle cx="480" cy="720" r="45"/>
        <circle cx="272" cy="600" r="45"/> <circle cx="272" cy="360" r="45"/>
        <circle cx="480" cy="100" r="40"/> <circle cx="810" cy="290" r="40"/>
        <circle cx="810" cy="670" r="40"/> <circle cx="480" cy="860" r="40"/>
        <circle cx="150" cy="670" r="40"/> <circle cx="150" cy="290" r="40"/>
    </g>
</g>
</svg>