<svg xmlns="http://www.w3.org/2000/svg" viewBox="0 0 128 128" width="128" height="128">
  <!--
    SmrutiCortex 128px Icon — Chrome Web Store Hero
    Version 11 — Matches master icon design
  -->
  
  <!-- Container -->
  <circle cx="64" cy="64" r="57.5" fill="#1e3a8a"/>
  
  <!-- S-curve (refined) -->
  <path d="M 27.5 32.5
           C 27.5 17.5, 57.5 10, 77.5 15
           C 100 21, 107.5 40, 100 55
           C 92.5 70, 75 72.5, 64 72.5
           C 53 72.5, 35.5 75, 28 90
           C 20.5 105, 37.5 117.5, 62.5 115
           C 85 112.5, 97.5 102.5, 97.5 92.5"
        fill="none"
        stroke="#ffffff"
        stroke-width="11"
        stroke-linecap="round"/>
  
  <!-- Node 1: Origin (top-left) -->
  <circle cx="27.5" cy="32.5" r="7.5" fill="#ffffff"/>
  <circle cx="27.5" cy="32.5" r="4.25" fill="#3b82f6"/>
  
  <!-- Node 2: Eureka (center - largest) -->
  <circle cx="64" cy="72.5" r="9" fill="#ffffff"/>
  <circle cx="64" cy="72.5" r="5.75" fill="#1e3a8a"/>
  <circle cx="64" cy="72.5" r="3.5" fill="#ffffff"/>
  
  <!-- Node 3: Destination (bottom-right) -->
  <circle cx="97.5" cy="92.5" r="7.5" fill="#ffffff"/>
  <circle cx="97.5" cy="92.5" r="4.25" fill="#3b82f6"/>
</svg>
