<svg xmlns="http://www.w3.org/2000/svg" viewBox="0 0 512 512" width="512" height="512">
  <!--
    SmrutiCortex 512px Icon — Marketing / Promotional
    Version 11 — Matches master icon design
  -->
  
  <!-- Container -->
  <circle cx="256" cy="256" r="230" fill="#1e3a8a"/>
  
  <!-- S-curve (refined asymmetric flow) -->
  <path d="M 110 130
           C 110 70, 230 40, 310 60
           C 400 84, 430 160, 400 220
           C 370 280, 300 290, 256 290
           C 212 290, 142 300, 112 360
           C 82 420, 150 470, 250 460
           C 340 450, 390 410, 390 370"
        fill="none"
        stroke="#ffffff"
        stroke-width="44"
        stroke-linecap="round"/>
  
  <!-- Node 1: Origin (top-left) -->
  <circle cx="110" cy="130" r="30" fill="#ffffff"/>
  <circle cx="110" cy="130" r="17" fill="#3b82f6"/>
  <circle cx="106" cy="126" r="6" fill="#ffffff" opacity="0.7"/>
  
  <!-- Node 2: Eureka (center - largest) -->
  <circle cx="256" cy="290" r="36" fill="#ffffff"/>
  <circle cx="256" cy="290" r="23" fill="#1e3a8a"/>
  <circle cx="256" cy="290" r="14" fill="#ffffff"/>
  <circle cx="252" cy="286" r="5" fill="#60a5fa" opacity="0.8"/>
  
  <!-- Node 3: Destination (bottom-right) -->
  <circle cx="390" cy="370" r="30" fill="#ffffff"/>
  <circle cx="390" cy="370" r="17" fill="#3b82f6"/>
  <circle cx="386" cy="366" r="6" fill="#ffffff" opacity="0.7"/>
</svg>
